<mxfile host="app.diagrams.net" modified="2023-06-06T09:38:28.949Z" agent="Mozilla/5.0 (Windows NT 10.0; Win64; x64) AppleWebKit/537.36 (KHTML, like Gecko) Chrome/113.0.0.0 Safari/537.36" etag="Iz80v_TdPXXdzgT6J12u" version="21.3.7" type="device">
  <diagram name="Page-1" id="_21KLY6zzwmgCNv4Rzce">
    <mxGraphModel dx="1900" dy="1719" grid="1" gridSize="10" guides="1" tooltips="1" connect="1" arrows="1" fold="1" page="1" pageScale="1" pageWidth="850" pageHeight="1100" math="0" shadow="0">
      <root>
        <mxCell id="0" />
        <mxCell id="1" parent="0" />
        <mxCell id="Q9RVoWEdcoS_mWo1hFiS-1" value="User" style="rounded=0;whiteSpace=wrap;html=1;" parent="1" vertex="1">
          <mxGeometry x="180" y="310" width="120" height="60" as="geometry" />
        </mxCell>
        <mxCell id="Q9RVoWEdcoS_mWo1hFiS-2" value="id" style="ellipse;whiteSpace=wrap;html=1;" parent="1" vertex="1">
          <mxGeometry x="30" y="110" width="100" height="70" as="geometry" />
        </mxCell>
        <mxCell id="Q9RVoWEdcoS_mWo1hFiS-4" value="" style="endArrow=none;html=1;rounded=0;exitX=0.5;exitY=1;exitDx=0;exitDy=0;entryX=0.5;entryY=0;entryDx=0;entryDy=0;" parent="1" source="Q9RVoWEdcoS_mWo1hFiS-2" target="Q9RVoWEdcoS_mWo1hFiS-1" edge="1">
          <mxGeometry width="50" height="50" relative="1" as="geometry">
            <mxPoint x="100" y="190" as="sourcePoint" />
            <mxPoint x="450" y="300" as="targetPoint" />
          </mxGeometry>
        </mxCell>
        <mxCell id="Q9RVoWEdcoS_mWo1hFiS-5" value="name" style="ellipse;whiteSpace=wrap;html=1;" parent="1" vertex="1">
          <mxGeometry x="120" y="70" width="100" height="70" as="geometry" />
        </mxCell>
        <mxCell id="Q9RVoWEdcoS_mWo1hFiS-6" value="" style="endArrow=none;html=1;rounded=0;exitX=0.5;exitY=1;exitDx=0;exitDy=0;entryX=0.5;entryY=0;entryDx=0;entryDy=0;" parent="1" source="Q9RVoWEdcoS_mWo1hFiS-5" target="Q9RVoWEdcoS_mWo1hFiS-1" edge="1">
          <mxGeometry width="50" height="50" relative="1" as="geometry">
            <mxPoint x="90" y="190" as="sourcePoint" />
            <mxPoint x="240" y="260" as="targetPoint" />
          </mxGeometry>
        </mxCell>
        <mxCell id="Q9RVoWEdcoS_mWo1hFiS-7" value="email(username)" style="ellipse;whiteSpace=wrap;html=1;" parent="1" vertex="1">
          <mxGeometry x="230" y="60" width="100" height="70" as="geometry" />
        </mxCell>
        <mxCell id="Q9RVoWEdcoS_mWo1hFiS-8" value="" style="endArrow=none;html=1;rounded=0;entryX=0.5;entryY=1;entryDx=0;entryDy=0;exitX=0.5;exitY=0;exitDx=0;exitDy=0;" parent="1" source="Q9RVoWEdcoS_mWo1hFiS-1" target="Q9RVoWEdcoS_mWo1hFiS-7" edge="1">
          <mxGeometry width="50" height="50" relative="1" as="geometry">
            <mxPoint x="240" y="260" as="sourcePoint" />
            <mxPoint x="450" y="300" as="targetPoint" />
          </mxGeometry>
        </mxCell>
        <mxCell id="Q9RVoWEdcoS_mWo1hFiS-9" value="password" style="ellipse;whiteSpace=wrap;html=1;" parent="1" vertex="1">
          <mxGeometry x="325" y="110" width="100" height="70" as="geometry" />
        </mxCell>
        <mxCell id="Q9RVoWEdcoS_mWo1hFiS-10" value="" style="endArrow=none;html=1;rounded=0;exitX=0.5;exitY=0;exitDx=0;exitDy=0;entryX=0.5;entryY=1;entryDx=0;entryDy=0;" parent="1" source="Q9RVoWEdcoS_mWo1hFiS-1" target="Q9RVoWEdcoS_mWo1hFiS-9" edge="1">
          <mxGeometry width="50" height="50" relative="1" as="geometry">
            <mxPoint x="400" y="350" as="sourcePoint" />
            <mxPoint x="450" y="300" as="targetPoint" />
          </mxGeometry>
        </mxCell>
        <mxCell id="Q9RVoWEdcoS_mWo1hFiS-11" value="about" style="ellipse;whiteSpace=wrap;html=1;" parent="1" vertex="1">
          <mxGeometry x="375" y="180" width="100" height="70" as="geometry" />
        </mxCell>
        <mxCell id="Q9RVoWEdcoS_mWo1hFiS-12" value="" style="endArrow=none;html=1;rounded=0;entryX=0.006;entryY=0.683;entryDx=0;entryDy=0;entryPerimeter=0;" parent="1" target="Q9RVoWEdcoS_mWo1hFiS-11" edge="1">
          <mxGeometry width="50" height="50" relative="1" as="geometry">
            <mxPoint x="240" y="310" as="sourcePoint" />
            <mxPoint x="385" y="190" as="targetPoint" />
          </mxGeometry>
        </mxCell>
        <mxCell id="Q9RVoWEdcoS_mWo1hFiS-13" value="Post" style="rounded=0;whiteSpace=wrap;html=1;" parent="1" vertex="1">
          <mxGeometry x="630" y="310" width="120" height="60" as="geometry" />
        </mxCell>
        <mxCell id="Q9RVoWEdcoS_mWo1hFiS-14" value="post_id" style="ellipse;whiteSpace=wrap;html=1;" parent="1" vertex="1">
          <mxGeometry x="490" y="120" width="100" height="70" as="geometry" />
        </mxCell>
        <mxCell id="Q9RVoWEdcoS_mWo1hFiS-21" value="" style="endArrow=none;html=1;rounded=0;entryX=0.5;entryY=1;entryDx=0;entryDy=0;exitX=0.5;exitY=0;exitDx=0;exitDy=0;" parent="1" source="Q9RVoWEdcoS_mWo1hFiS-13" target="Q9RVoWEdcoS_mWo1hFiS-14" edge="1">
          <mxGeometry width="50" height="50" relative="1" as="geometry">
            <mxPoint x="250" y="270" as="sourcePoint" />
            <mxPoint x="386" y="238" as="targetPoint" />
          </mxGeometry>
        </mxCell>
        <mxCell id="Q9RVoWEdcoS_mWo1hFiS-22" value="title" style="ellipse;whiteSpace=wrap;html=1;" parent="1" vertex="1">
          <mxGeometry x="570" y="70" width="100" height="70" as="geometry" />
        </mxCell>
        <mxCell id="Q9RVoWEdcoS_mWo1hFiS-23" value="" style="endArrow=none;html=1;rounded=0;exitX=0.5;exitY=1;exitDx=0;exitDy=0;entryX=0.5;entryY=0;entryDx=0;entryDy=0;" parent="1" source="Q9RVoWEdcoS_mWo1hFiS-22" target="Q9RVoWEdcoS_mWo1hFiS-13" edge="1">
          <mxGeometry width="50" height="50" relative="1" as="geometry">
            <mxPoint x="180" y="150" as="sourcePoint" />
            <mxPoint x="250" y="270" as="targetPoint" />
          </mxGeometry>
        </mxCell>
        <mxCell id="Q9RVoWEdcoS_mWo1hFiS-24" value="content" style="ellipse;whiteSpace=wrap;html=1;" parent="1" vertex="1">
          <mxGeometry x="670" y="50" width="100" height="70" as="geometry" />
        </mxCell>
        <mxCell id="Q9RVoWEdcoS_mWo1hFiS-25" value="" style="endArrow=none;html=1;rounded=0;exitX=0.5;exitY=0;exitDx=0;exitDy=0;entryX=0.5;entryY=1;entryDx=0;entryDy=0;" parent="1" source="Q9RVoWEdcoS_mWo1hFiS-13" target="Q9RVoWEdcoS_mWo1hFiS-24" edge="1">
          <mxGeometry width="50" height="50" relative="1" as="geometry">
            <mxPoint x="250" y="270" as="sourcePoint" />
            <mxPoint x="385" y="190" as="targetPoint" />
          </mxGeometry>
        </mxCell>
        <mxCell id="Q9RVoWEdcoS_mWo1hFiS-26" value="image" style="ellipse;whiteSpace=wrap;html=1;" parent="1" vertex="1">
          <mxGeometry x="750" y="110" width="100" height="70" as="geometry" />
        </mxCell>
        <mxCell id="Q9RVoWEdcoS_mWo1hFiS-27" value="" style="endArrow=none;html=1;rounded=0;entryX=0.5;entryY=1;entryDx=0;entryDy=0;exitX=0.5;exitY=0;exitDx=0;exitDy=0;" parent="1" source="Q9RVoWEdcoS_mWo1hFiS-13" target="Q9RVoWEdcoS_mWo1hFiS-26" edge="1">
          <mxGeometry width="50" height="50" relative="1" as="geometry">
            <mxPoint x="700" y="260" as="sourcePoint" />
            <mxPoint x="730" y="130" as="targetPoint" />
          </mxGeometry>
        </mxCell>
        <mxCell id="Q9RVoWEdcoS_mWo1hFiS-28" value="&lt;b&gt;&lt;i&gt;user_id&lt;/i&gt;&lt;/b&gt;" style="ellipse;whiteSpace=wrap;html=1;fillColor=#fff2cc;strokeColor=#d6b656;" parent="1" vertex="1">
          <mxGeometry x="820" y="180" width="100" height="70" as="geometry" />
        </mxCell>
        <mxCell id="Q9RVoWEdcoS_mWo1hFiS-29" value="" style="endArrow=none;html=1;rounded=0;entryX=0;entryY=1;entryDx=0;entryDy=0;" parent="1" target="Q9RVoWEdcoS_mWo1hFiS-28" edge="1">
          <mxGeometry width="50" height="50" relative="1" as="geometry">
            <mxPoint x="690" y="310" as="sourcePoint" />
            <mxPoint x="810" y="190" as="targetPoint" />
          </mxGeometry>
        </mxCell>
        <mxCell id="Q9RVoWEdcoS_mWo1hFiS-30" value="multiple&amp;nbsp;&lt;br&gt;post" style="rhombus;whiteSpace=wrap;html=1;" parent="1" vertex="1">
          <mxGeometry x="420" y="410" width="80" height="80" as="geometry" />
        </mxCell>
        <mxCell id="Q9RVoWEdcoS_mWo1hFiS-31" value="" style="endArrow=none;html=1;rounded=0;exitX=1;exitY=0.5;exitDx=0;exitDy=0;entryX=0;entryY=1;entryDx=0;entryDy=0;" parent="1" source="Q9RVoWEdcoS_mWo1hFiS-30" target="Q9RVoWEdcoS_mWo1hFiS-13" edge="1">
          <mxGeometry width="50" height="50" relative="1" as="geometry">
            <mxPoint x="570" y="380" as="sourcePoint" />
            <mxPoint x="620" y="330" as="targetPoint" />
          </mxGeometry>
        </mxCell>
        <mxCell id="Q9RVoWEdcoS_mWo1hFiS-33" value="" style="endArrow=none;html=1;rounded=0;entryX=1;entryY=1;entryDx=0;entryDy=0;exitX=0;exitY=0.5;exitDx=0;exitDy=0;" parent="1" source="Q9RVoWEdcoS_mWo1hFiS-30" target="Q9RVoWEdcoS_mWo1hFiS-1" edge="1">
          <mxGeometry width="50" height="50" relative="1" as="geometry">
            <mxPoint x="570" y="380" as="sourcePoint" />
            <mxPoint x="620" y="330" as="targetPoint" />
          </mxGeometry>
        </mxCell>
        <mxCell id="Q9RVoWEdcoS_mWo1hFiS-34" value="1" style="text;html=1;align=center;verticalAlign=middle;resizable=0;points=[];autosize=1;strokeColor=none;fillColor=none;" parent="1" vertex="1">
          <mxGeometry x="345" y="385" width="30" height="30" as="geometry" />
        </mxCell>
        <mxCell id="Q9RVoWEdcoS_mWo1hFiS-35" value="N" style="text;html=1;align=center;verticalAlign=middle;resizable=0;points=[];autosize=1;strokeColor=none;fillColor=none;" parent="1" vertex="1">
          <mxGeometry x="555" y="385" width="30" height="30" as="geometry" />
        </mxCell>
        <mxCell id="Q9RVoWEdcoS_mWo1hFiS-36" value="comment" style="rounded=0;whiteSpace=wrap;html=1;" parent="1" vertex="1">
          <mxGeometry x="630" y="700" width="120" height="60" as="geometry" />
        </mxCell>
        <mxCell id="Q9RVoWEdcoS_mWo1hFiS-37" value="" style="endArrow=none;html=1;rounded=0;exitX=0.5;exitY=0;exitDx=0;exitDy=0;" parent="1" source="Q9RVoWEdcoS_mWo1hFiS-36" target="Q9RVoWEdcoS_mWo1hFiS-38" edge="1">
          <mxGeometry width="50" height="50" relative="1" as="geometry">
            <mxPoint x="570" y="660" as="sourcePoint" />
            <mxPoint x="620" y="610" as="targetPoint" />
          </mxGeometry>
        </mxCell>
        <mxCell id="Q9RVoWEdcoS_mWo1hFiS-38" value="comment_id" style="ellipse;whiteSpace=wrap;html=1;" parent="1" vertex="1">
          <mxGeometry x="490" y="600" width="100" height="50" as="geometry" />
        </mxCell>
        <mxCell id="Q9RVoWEdcoS_mWo1hFiS-39" value="comment" style="ellipse;whiteSpace=wrap;html=1;" parent="1" vertex="1">
          <mxGeometry x="600" y="570" width="100" height="50" as="geometry" />
        </mxCell>
        <mxCell id="Q9RVoWEdcoS_mWo1hFiS-40" value="" style="endArrow=none;html=1;rounded=0;entryX=0.5;entryY=1;entryDx=0;entryDy=0;exitX=0.5;exitY=0;exitDx=0;exitDy=0;" parent="1" source="Q9RVoWEdcoS_mWo1hFiS-36" target="Q9RVoWEdcoS_mWo1hFiS-39" edge="1">
          <mxGeometry width="50" height="50" relative="1" as="geometry">
            <mxPoint x="680" y="830" as="sourcePoint" />
            <mxPoint x="730" y="780" as="targetPoint" />
          </mxGeometry>
        </mxCell>
        <mxCell id="Q9RVoWEdcoS_mWo1hFiS-41" value="&lt;b&gt;&lt;i&gt;post_id&lt;/i&gt;&lt;/b&gt;" style="ellipse;whiteSpace=wrap;html=1;fillColor=#dae8fc;strokeColor=#6c8ebf;" parent="1" vertex="1">
          <mxGeometry x="710" y="560" width="100" height="50" as="geometry" />
        </mxCell>
        <mxCell id="Q9RVoWEdcoS_mWo1hFiS-42" value="" style="endArrow=none;html=1;rounded=0;entryX=0.5;entryY=1;entryDx=0;entryDy=0;exitX=0.5;exitY=0;exitDx=0;exitDy=0;" parent="1" source="Q9RVoWEdcoS_mWo1hFiS-36" target="Q9RVoWEdcoS_mWo1hFiS-41" edge="1">
          <mxGeometry width="50" height="50" relative="1" as="geometry">
            <mxPoint x="570" y="660" as="sourcePoint" />
            <mxPoint x="620" y="610" as="targetPoint" />
          </mxGeometry>
        </mxCell>
        <mxCell id="Q9RVoWEdcoS_mWo1hFiS-43" value="&lt;b&gt;&lt;i&gt;user_id&lt;/i&gt;&lt;/b&gt;" style="ellipse;whiteSpace=wrap;html=1;fillColor=#fff2cc;strokeColor=#d6b656;" parent="1" vertex="1">
          <mxGeometry x="800" y="610" width="100" height="50" as="geometry" />
        </mxCell>
        <mxCell id="Q9RVoWEdcoS_mWo1hFiS-44" value="" style="endArrow=none;html=1;rounded=0;entryX=0.436;entryY=1.012;entryDx=0;entryDy=0;entryPerimeter=0;exitX=0.5;exitY=0;exitDx=0;exitDy=0;" parent="1" source="Q9RVoWEdcoS_mWo1hFiS-36" target="Q9RVoWEdcoS_mWo1hFiS-43" edge="1">
          <mxGeometry width="50" height="50" relative="1" as="geometry">
            <mxPoint x="570" y="660" as="sourcePoint" />
            <mxPoint x="620" y="610" as="targetPoint" />
          </mxGeometry>
        </mxCell>
        <mxCell id="Q9RVoWEdcoS_mWo1hFiS-45" value="multiple&amp;nbsp;&lt;br&gt;comments" style="rhombus;whiteSpace=wrap;html=1;" parent="1" vertex="1">
          <mxGeometry x="220" y="610" width="80" height="80" as="geometry" />
        </mxCell>
        <mxCell id="Q9RVoWEdcoS_mWo1hFiS-46" value="" style="endArrow=none;html=1;rounded=0;entryX=0.5;entryY=1;entryDx=0;entryDy=0;exitX=0.5;exitY=0;exitDx=0;exitDy=0;" parent="1" source="Q9RVoWEdcoS_mWo1hFiS-45" target="Q9RVoWEdcoS_mWo1hFiS-1" edge="1">
          <mxGeometry width="50" height="50" relative="1" as="geometry">
            <mxPoint x="570" y="600" as="sourcePoint" />
            <mxPoint x="620" y="550" as="targetPoint" />
          </mxGeometry>
        </mxCell>
        <mxCell id="Q9RVoWEdcoS_mWo1hFiS-47" value="" style="endArrow=none;html=1;rounded=0;entryX=0;entryY=0.5;entryDx=0;entryDy=0;exitX=1;exitY=0.5;exitDx=0;exitDy=0;" parent="1" source="Q9RVoWEdcoS_mWo1hFiS-45" target="Q9RVoWEdcoS_mWo1hFiS-36" edge="1">
          <mxGeometry width="50" height="50" relative="1" as="geometry">
            <mxPoint x="270" y="620" as="sourcePoint" />
            <mxPoint x="250" y="380" as="targetPoint" />
          </mxGeometry>
        </mxCell>
        <mxCell id="Q9RVoWEdcoS_mWo1hFiS-48" value="1" style="text;html=1;align=center;verticalAlign=middle;resizable=0;points=[];autosize=1;strokeColor=none;fillColor=none;" parent="1" vertex="1">
          <mxGeometry x="245" y="475" width="30" height="30" as="geometry" />
        </mxCell>
        <mxCell id="Q9RVoWEdcoS_mWo1hFiS-49" value="N" style="text;html=1;align=center;verticalAlign=middle;resizable=0;points=[];autosize=1;strokeColor=none;fillColor=none;" parent="1" vertex="1">
          <mxGeometry x="425" y="655" width="30" height="30" as="geometry" />
        </mxCell>
        <mxCell id="Q9RVoWEdcoS_mWo1hFiS-50" value="multiple&amp;nbsp;&lt;br&gt;comments" style="rhombus;whiteSpace=wrap;html=1;" parent="1" vertex="1">
          <mxGeometry x="1010" y="475" width="80" height="80" as="geometry" />
        </mxCell>
        <mxCell id="Q9RVoWEdcoS_mWo1hFiS-51" value="" style="endArrow=none;html=1;rounded=0;entryX=0.5;entryY=1;entryDx=0;entryDy=0;exitX=0;exitY=0.5;exitDx=0;exitDy=0;" parent="1" source="Q9RVoWEdcoS_mWo1hFiS-50" target="Q9RVoWEdcoS_mWo1hFiS-13" edge="1">
          <mxGeometry width="50" height="50" relative="1" as="geometry">
            <mxPoint x="570" y="600" as="sourcePoint" />
            <mxPoint x="620" y="550" as="targetPoint" />
          </mxGeometry>
        </mxCell>
        <mxCell id="Q9RVoWEdcoS_mWo1hFiS-52" value="" style="endArrow=none;html=1;rounded=0;entryX=0.5;entryY=1;entryDx=0;entryDy=0;exitX=1;exitY=0.75;exitDx=0;exitDy=0;" parent="1" source="Q9RVoWEdcoS_mWo1hFiS-36" target="Q9RVoWEdcoS_mWo1hFiS-50" edge="1">
          <mxGeometry width="50" height="50" relative="1" as="geometry">
            <mxPoint x="570" y="600" as="sourcePoint" />
            <mxPoint x="620" y="550" as="targetPoint" />
          </mxGeometry>
        </mxCell>
        <mxCell id="Q9RVoWEdcoS_mWo1hFiS-53" value="N" style="text;html=1;align=center;verticalAlign=middle;resizable=0;points=[];autosize=1;strokeColor=none;fillColor=none;" parent="1" vertex="1">
          <mxGeometry x="945" y="585" width="30" height="30" as="geometry" />
        </mxCell>
        <mxCell id="Q9RVoWEdcoS_mWo1hFiS-54" value="1" style="text;html=1;align=center;verticalAlign=middle;resizable=0;points=[];autosize=1;strokeColor=none;fillColor=none;" parent="1" vertex="1">
          <mxGeometry x="835" y="415" width="30" height="30" as="geometry" />
        </mxCell>
        <mxCell id="Q9RVoWEdcoS_mWo1hFiS-55" value="Category" style="rounded=0;whiteSpace=wrap;html=1;" parent="1" vertex="1">
          <mxGeometry x="870" y="5" width="120" height="60" as="geometry" />
        </mxCell>
        <mxCell id="Q9RVoWEdcoS_mWo1hFiS-56" value="category_id" style="ellipse;whiteSpace=wrap;html=1;" parent="1" vertex="1">
          <mxGeometry x="805" y="-180" width="90" height="70" as="geometry" />
        </mxCell>
        <mxCell id="Q9RVoWEdcoS_mWo1hFiS-57" value="" style="endArrow=none;html=1;rounded=0;entryX=0.591;entryY=1.014;entryDx=0;entryDy=0;entryPerimeter=0;exitX=0.5;exitY=0;exitDx=0;exitDy=0;" parent="1" source="Q9RVoWEdcoS_mWo1hFiS-55" target="Q9RVoWEdcoS_mWo1hFiS-56" edge="1">
          <mxGeometry width="50" height="50" relative="1" as="geometry">
            <mxPoint x="570" y="-240" as="sourcePoint" />
            <mxPoint x="620" y="-290" as="targetPoint" />
          </mxGeometry>
        </mxCell>
        <mxCell id="Q9RVoWEdcoS_mWo1hFiS-58" value="title" style="ellipse;whiteSpace=wrap;html=1;" parent="1" vertex="1">
          <mxGeometry x="920" y="-180" width="90" height="70" as="geometry" />
        </mxCell>
        <mxCell id="Q9RVoWEdcoS_mWo1hFiS-59" value="" style="endArrow=none;html=1;rounded=0;entryX=0.5;entryY=1;entryDx=0;entryDy=0;exitX=0.5;exitY=0;exitDx=0;exitDy=0;" parent="1" source="Q9RVoWEdcoS_mWo1hFiS-55" target="Q9RVoWEdcoS_mWo1hFiS-58" edge="1">
          <mxGeometry width="50" height="50" relative="1" as="geometry">
            <mxPoint x="690" y="-250" as="sourcePoint" />
            <mxPoint x="563" y="-319" as="targetPoint" />
          </mxGeometry>
        </mxCell>
        <mxCell id="Q9RVoWEdcoS_mWo1hFiS-60" value="" style="endArrow=none;html=1;rounded=0;exitX=1;exitY=1;exitDx=0;exitDy=0;entryX=0;entryY=0.5;entryDx=0;entryDy=0;" parent="1" source="Q9RVoWEdcoS_mWo1hFiS-55" target="Q9RVoWEdcoS_mWo1hFiS-61" edge="1">
          <mxGeometry width="50" height="50" relative="1" as="geometry">
            <mxPoint x="570" y="-240" as="sourcePoint" />
            <mxPoint x="620" y="-290" as="targetPoint" />
          </mxGeometry>
        </mxCell>
        <mxCell id="Q9RVoWEdcoS_mWo1hFiS-61" value="Contains&lt;br&gt;Post" style="rhombus;whiteSpace=wrap;html=1;" parent="1" vertex="1">
          <mxGeometry x="1040" y="115" width="80" height="80" as="geometry" />
        </mxCell>
        <mxCell id="Q9RVoWEdcoS_mWo1hFiS-64" value="" style="endArrow=none;html=1;rounded=0;entryX=0.5;entryY=1;entryDx=0;entryDy=0;exitX=1;exitY=0.5;exitDx=0;exitDy=0;" parent="1" source="Q9RVoWEdcoS_mWo1hFiS-13" target="Q9RVoWEdcoS_mWo1hFiS-61" edge="1">
          <mxGeometry width="50" height="50" relative="1" as="geometry">
            <mxPoint x="570" y="140" as="sourcePoint" />
            <mxPoint x="620" y="90" as="targetPoint" />
          </mxGeometry>
        </mxCell>
        <mxCell id="Q9RVoWEdcoS_mWo1hFiS-65" value="N" style="text;html=1;align=center;verticalAlign=middle;resizable=0;points=[];autosize=1;strokeColor=none;fillColor=none;" parent="1" vertex="1">
          <mxGeometry x="915" y="255" width="30" height="30" as="geometry" />
        </mxCell>
        <mxCell id="Q9RVoWEdcoS_mWo1hFiS-66" value="category_id" style="ellipse;whiteSpace=wrap;html=1;fillColor=#f8cecc;strokeColor=#b85450;" parent="1" vertex="1">
          <mxGeometry x="475" y="220" width="100" height="60" as="geometry" />
        </mxCell>
        <mxCell id="Q9RVoWEdcoS_mWo1hFiS-67" value="" style="endArrow=none;html=1;rounded=0;entryX=1;entryY=0.5;entryDx=0;entryDy=0;" parent="1" target="Q9RVoWEdcoS_mWo1hFiS-66" edge="1">
          <mxGeometry width="50" height="50" relative="1" as="geometry">
            <mxPoint x="690" y="310" as="sourcePoint" />
            <mxPoint x="550" y="200" as="targetPoint" />
          </mxGeometry>
        </mxCell>
        <mxCell id="Q9RVoWEdcoS_mWo1hFiS-68" value="Role" style="rounded=0;whiteSpace=wrap;html=1;" parent="1" vertex="1">
          <mxGeometry x="-200" y="65" width="120" height="60" as="geometry" />
        </mxCell>
        <mxCell id="Q9RVoWEdcoS_mWo1hFiS-69" value="role_id" style="ellipse;whiteSpace=wrap;html=1;" parent="1" vertex="1">
          <mxGeometry x="-270" y="-40" width="100" height="50" as="geometry" />
        </mxCell>
        <mxCell id="Q9RVoWEdcoS_mWo1hFiS-73" value="" style="endArrow=none;html=1;rounded=0;entryX=0.5;entryY=0;entryDx=0;entryDy=0;exitX=0.5;exitY=1;exitDx=0;exitDy=0;" parent="1" source="Q9RVoWEdcoS_mWo1hFiS-69" target="Q9RVoWEdcoS_mWo1hFiS-68" edge="1">
          <mxGeometry width="50" height="50" relative="1" as="geometry">
            <mxPoint x="-200" y="-260" as="sourcePoint" />
            <mxPoint x="-150" y="-310" as="targetPoint" />
          </mxGeometry>
        </mxCell>
        <mxCell id="Q9RVoWEdcoS_mWo1hFiS-74" value="role_name" style="ellipse;whiteSpace=wrap;html=1;" parent="1" vertex="1">
          <mxGeometry x="-150" y="-50" width="100" height="50" as="geometry" />
        </mxCell>
        <mxCell id="Q9RVoWEdcoS_mWo1hFiS-75" value="" style="endArrow=none;html=1;rounded=0;entryX=0.5;entryY=1;entryDx=0;entryDy=0;exitX=0.5;exitY=0;exitDx=0;exitDy=0;" parent="1" source="Q9RVoWEdcoS_mWo1hFiS-68" target="Q9RVoWEdcoS_mWo1hFiS-74" edge="1">
          <mxGeometry width="50" height="50" relative="1" as="geometry">
            <mxPoint x="-200" y="-260" as="sourcePoint" />
            <mxPoint x="-150" y="-310" as="targetPoint" />
          </mxGeometry>
        </mxCell>
        <mxCell id="Q9RVoWEdcoS_mWo1hFiS-77" value="roles can have many&amp;nbsp;&lt;br&gt;users" style="rhombus;whiteSpace=wrap;html=1;" parent="1" vertex="1">
          <mxGeometry x="-190" y="305" width="80" height="80" as="geometry" />
        </mxCell>
        <mxCell id="Q9RVoWEdcoS_mWo1hFiS-78" value="" style="endArrow=none;html=1;rounded=0;entryX=0;entryY=0.5;entryDx=0;entryDy=0;exitX=1;exitY=0.5;exitDx=0;exitDy=0;" parent="1" source="Q9RVoWEdcoS_mWo1hFiS-77" target="Q9RVoWEdcoS_mWo1hFiS-1" edge="1">
          <mxGeometry width="50" height="50" relative="1" as="geometry">
            <mxPoint x="-200" y="260" as="sourcePoint" />
            <mxPoint x="-150" y="210" as="targetPoint" />
          </mxGeometry>
        </mxCell>
        <mxCell id="Q9RVoWEdcoS_mWo1hFiS-82" value="" style="endArrow=none;html=1;rounded=0;entryX=0.5;entryY=0;entryDx=0;entryDy=0;exitX=0.5;exitY=1;exitDx=0;exitDy=0;" parent="1" source="Q9RVoWEdcoS_mWo1hFiS-68" target="Q9RVoWEdcoS_mWo1hFiS-77" edge="1">
          <mxGeometry width="50" height="50" relative="1" as="geometry">
            <mxPoint x="-200" y="260" as="sourcePoint" />
            <mxPoint x="-150" y="210" as="targetPoint" />
          </mxGeometry>
        </mxCell>
        <mxCell id="Q9RVoWEdcoS_mWo1hFiS-84" value="1" style="text;html=1;align=center;verticalAlign=middle;resizable=0;points=[];autosize=1;strokeColor=none;fillColor=none;" parent="1" vertex="1">
          <mxGeometry x="-125" y="205" width="30" height="30" as="geometry" />
        </mxCell>
        <mxCell id="Q9RVoWEdcoS_mWo1hFiS-85" value="N" style="text;html=1;align=center;verticalAlign=middle;resizable=0;points=[];autosize=1;strokeColor=none;fillColor=none;" parent="1" vertex="1">
          <mxGeometry x="-15" y="315" width="30" height="30" as="geometry" />
        </mxCell>
        <mxCell id="Q9RVoWEdcoS_mWo1hFiS-86" value="role_id" style="ellipse;whiteSpace=wrap;html=1;" parent="1" vertex="1">
          <mxGeometry x="-10" y="205" width="90" height="50" as="geometry" />
        </mxCell>
        <mxCell id="Q9RVoWEdcoS_mWo1hFiS-87" value="" style="endArrow=none;html=1;rounded=0;entryX=0.5;entryY=0;entryDx=0;entryDy=0;exitX=1;exitY=1;exitDx=0;exitDy=0;" parent="1" source="Q9RVoWEdcoS_mWo1hFiS-86" target="Q9RVoWEdcoS_mWo1hFiS-1" edge="1">
          <mxGeometry width="50" height="50" relative="1" as="geometry">
            <mxPoint x="-200" y="300" as="sourcePoint" />
            <mxPoint x="-150" y="250" as="targetPoint" />
          </mxGeometry>
        </mxCell>
        <mxCell id="MGLnAwvd29b4NsUYpiO2-1" value="1" style="text;html=1;align=center;verticalAlign=middle;resizable=0;points=[];autosize=1;strokeColor=none;fillColor=none;" vertex="1" parent="1">
          <mxGeometry x="1015" y="98" width="30" height="30" as="geometry" />
        </mxCell>
      </root>
    </mxGraphModel>
  </diagram>
</mxfile>
